<?xml version="1.0" standalone="no"?>
<!DOCTYPE svg PUBLIC "-//W3C//DTD SVG 20010904//EN"
 "http://www.w3.org/TR/2001/REC-SVG-20010904/DTD/svg10.dtd">
<svg version="1.0" xmlns="http://www.w3.org/2000/svg"
 width="512.000000pt" height="512.000000pt" viewBox="0 0 512.000000 512.000000"
 preserveAspectRatio="xMidYMid meet">

<g transform="translate(0.000000,512.000000) scale(0.100000,-0.100000)"
fill="#000000" stroke="none">
<path d="M1180 4904 c-6 -14 -10 -32 -10 -40 0 -27 -63 -209 -92 -269 -115
-231 -314 -432 -538 -545 -66 -33 -204 -81 -310 -107 -28 -7 -36 -14 -38 -36
-4 -31 0 -33 128 -68 300 -80 548 -269 705 -534 67 -113 98 -188 133 -317 43
-161 74 -159 117 7 27 102 91 250 148 340 111 177 283 330 482 428 74 37 251
97 285 97 11 0 29 9 40 20 32 32 12 56 -56 70 -317 66 -599 271 -773 562 -63
106 -93 178 -126 304 -30 114 -30 114 -61 114 -17 0 -27 -8 -34 -26z"/>
<path d="M3286 4034 c-9 -8 -18 -25 -21 -37 -50 -233 -95 -366 -181 -538 -252
-503 -728 -877 -1279 -1004 -68 -16 -128 -35 -139 -45 -22 -21 -24 -66 -5 -85
8 -8 68 -26 133 -40 159 -36 265 -73 421 -150 165 -81 281 -158 420 -278 305
-264 528 -641 614 -1042 12 -54 27 -105 33 -112 15 -19 72 -16 90 5 8 9 29 76
46 149 105 443 353 821 717 1094 240 179 484 284 822 355 51 10 70 67 34 103
-10 10 -52 26 -97 35 -275 59 -563 190 -779 355 -83 63 -256 232 -325 317
-183 228 -330 538 -385 814 -9 47 -24 93 -33 103 -19 21 -65 22 -86 1z"/>
<path d="M1516 1598 c-2 -7 -14 -47 -26 -88 -78 -268 -290 -462 -572 -524 -19
-4 -28 -13 -28 -26 0 -13 9 -22 28 -26 78 -17 164 -50 224 -85 178 -105 295
-255 351 -450 20 -66 29 -84 43 -84 14 0 23 17 40 75 42 149 100 245 205 345
104 99 200 155 322 186 111 30 115 48 14 74 -268 70 -475 277 -545 544 -12 46
-23 67 -35 69 -9 2 -19 -2 -21 -10z"/>
</g>
</svg>
