<?xml version="1.0" standalone="no"?>
<!DOCTYPE svg PUBLIC "-//W3C//DTD SVG 20010904//EN"
 "http://www.w3.org/TR/2001/REC-SVG-20010904/DTD/svg10.dtd">
<svg version="1.0" xmlns="http://www.w3.org/2000/svg"
 width="512.000000pt" height="512.000000pt" viewBox="0 0 512.000000 512.000000"
 preserveAspectRatio="xMidYMid meet">

<g transform="translate(0.000000,512.000000) scale(0.100000,-0.100000)"
fill="currentColor" stroke="none">
<path d="M1106 4944 c-184 -44 -342 -200 -391 -385 -13 -46 -15 -345 -15
-1998 0 -2143 -4 -1998 62 -2123 57 -108 192 -216 318 -256 37 -11 88 -17 155
-17 119 1 203 25 288 84 30 21 247 195 483 387 235 191 444 356 463 366 42 22
128 24 174 4 18 -7 241 -183 496 -390 255 -207 485 -388 510 -400 75 -39 149
-56 236 -56 158 0 274 50 384 165 71 76 113 147 136 236 22 81 22 3917 0 3998
-49 187 -208 341 -396 386 -93 22 -2812 21 -2903 -1z m2847 -315 c47 -13 102
-60 128 -110 19 -37 19 -77 19 -1961 l0 -1923 -23 -39 c-12 -22 -39 -53 -60
-70 -34 -27 -48 -31 -110 -34 -55 -2 -80 1 -107 15 -19 10 -236 183 -482 383
-458 374 -528 423 -637 448 -121 28 -252 9 -370 -54 -40 -21 -245 -180 -521
-404 -504 -411 -513 -417 -608 -391 -57 15 -110 55 -139 107 l-23 39 0 1923
c0 1873 0 1924 19 1960 26 50 70 91 117 107 32 12 270 14 1399 15 919 0 1372
-4 1398 -11z"/>
</g>
</svg>
