<?xml version="1.0" standalone="no"?>
<!DOCTYPE svg PUBLIC "-//W3C//DTD SVG 20010904//EN"
 "http://www.w3.org/TR/2001/REC-SVG-20010904/DTD/svg10.dtd">
<svg version="1.0" xmlns="http://www.w3.org/2000/svg"
 width="512.000000pt" height="512.000000pt" viewBox="0 0 512.000000 512.000000"
 preserveAspectRatio="xMidYMid meet">

<g transform="translate(0.000000,512.000000) scale(0.100000,-0.100000)"
fill="currentColor" stroke="none">
<path d="M1965 4839 c-411 -39 -803 -218 -1107 -508 -774 -737 -777 -1968 -7
-2706 607 -581 1506 -687 2241 -263 l58 33 607 -606 c700 -698 645 -654 828
-654 99 0 116 3 168 27 80 38 160 117 200 197 30 62 32 72 32 176 0 185 40
134 -658 833 l-602 602 33 58 c232 403 311 871 221 1317 -102 505 -423 963
-861 1229 -344 209 -751 302 -1153 265z m445 -175 c692 -107 1252 -631 1404
-1314 85 -381 42 -758 -125 -1109 -136 -287 -328 -508 -594 -686 -711 -476
-1656 -357 -2227 281 -146 163 -280 395 -347 599 -92 279 -110 595 -50 888 64
318 233 631 465 862 180 180 435 338 669 414 255 84 536 107 805 65z m2405
-4036 c26 -71 18 -162 -21 -224 -42 -69 -107 -107 -190 -112 -125 -8 -95 -34
-742 612 l-582 581 47 40 c82 68 192 177 251 248 l57 68 581 -583 c498 -499
584 -590 599 -630z"/>
</g>
</svg>
